<svg width="20" height="20" viewBox="0 0 20 20" fill="none" xmlns="http://www.w3.org/2000/svg">
<path d="M14.5 7H16C16.1989 7 16.3897 7.07902 16.5303 7.21967C16.671 7.36032 16.75 7.55109 16.75 7.75V16.75C16.75 16.9489 16.671 17.1397 16.5303 17.2803C16.3897 17.421 16.1989 17.5 16 17.5H4C3.80109 17.5 3.61032 17.421 3.46967 17.2803C3.32902 17.1397 3.25 16.9489 3.25 16.75V7.75C3.25 7.55109 3.32902 7.36032 3.46967 7.21967C3.61032 7.07902 3.80109 7 4 7H5.5V6.25C5.5 5.05653 5.97411 3.91193 6.81802 3.06802C7.66193 2.22411 8.80653 1.75 10 1.75C11.1935 1.75 12.3381 2.22411 13.182 3.06802C14.0259 3.91193 14.5 5.05653 14.5 6.25V7ZM4.75 8.5V16H15.25V8.5H4.75ZM9.25 11.5H10.75V13H9.25V11.5ZM6.25 11.5H7.75V13H6.25V11.5ZM12.25 11.5H13.75V13H12.25V11.5ZM13 7V6.25C13 5.45435 12.6839 4.69129 12.1213 4.12868C11.5587 3.56607 10.7956 3.25 10 3.25C9.20435 3.25 8.44129 3.56607 7.87868 4.12868C7.31607 4.69129 7 5.45435 7 6.25V7H13Z" fill="#868C98"/>
</svg>
