<svg width="25" height="24" viewBox="0 0 25 24" fill="none" xmlns="http://www.w3.org/2000/svg">
<path d="M18.8 10.2H19.7C19.9387 10.2 20.1676 10.2948 20.3364 10.4636C20.5052 10.6324 20.6 10.8613 20.6 11.1V20.1C20.6 20.3387 20.5052 20.5676 20.3364 20.7364C20.1676 20.9052 19.9387 21 19.7 21H5.3C5.06131 21 4.83239 20.9052 4.66361 20.7364C4.49482 20.5676 4.4 20.3387 4.4 20.1V11.1C4.4 10.8613 4.49482 10.6324 4.66361 10.4636C4.83239 10.2948 5.06131 10.2 5.3 10.2H6.2V9.3C6.2 8.47267 6.36296 7.65345 6.67956 6.88909C6.99617 6.12474 7.46022 5.43024 8.04523 4.84523C8.63024 4.26022 9.32474 3.79616 10.0891 3.47956C10.8534 3.16295 11.6727 3 12.5 3C13.3273 3 14.1466 3.16295 14.9109 3.47956C15.6753 3.79616 16.3698 4.26022 16.9548 4.84523C17.5398 5.43024 18.0038 6.12474 18.3204 6.88909C18.637 7.65345 18.8 8.47267 18.8 9.3V10.2ZM6.2 12V19.2H18.8V12H6.2ZM11.6 13.8H13.4V17.4H11.6V13.8ZM17 10.2V9.3C17 8.10653 16.5259 6.96193 15.682 6.11802C14.8381 5.27411 13.6935 4.8 12.5 4.8C11.3065 4.8 10.1619 5.27411 9.31802 6.11802C8.47411 6.96193 8 8.10653 8 9.3V10.2H17Z" fill="#01170C"/>
</svg>
